<?xml version="1.0" encoding="utf-8"?>
<!-- Generator: Adobe Illustrator 20.1.0, SVG Export Plug-In . SVG Version: 6.00 Build 0)  -->
<svg version="1.1" id="Layer_1" xmlns="http://www.w3.org/2000/svg" xmlns:xlink="http://www.w3.org/1999/xlink" x="0px" y="0px"
	 viewBox="0 0 2000 1322.6" style="enable-background:new 0 0 2000 1322.6;" xml:space="preserve">
<style type="text/css">
	.st0{display:none;}
	.st1{display:inline;fill:#21D8DE;}
	.st2{display:inline;fill:#11B9C1;}
	.st3{display:inline;fill:#FCEE21;}
	.st4{display:inline;fill:#F4D451;}
	.st5{display:inline;fill:#FF4C4D;}
	.st6{display:inline;fill:#F33A3A;}
	.st7{display:inline;fill:#F96B6B;}
	.st8{display:inline;fill:#027372;}
	.st9{display:inline;fill:#02ACAB;}
	.st10{display:inline;}
	.st11{fill:#81E3E2;}
	.st12{display:inline;fill:#42C8C6;}
	.st13{font-family:'PaintyPaint1';}
	.st14{font-size:358.8721px;}
	.st15{fill:#5BC0DE;}
	.st16{fill:#D9534F;}
	.st17{display:inline;fill:#D9534F;}
	.st18{font-family:'zAristaLight';}
	.st19{font-size:167.9659px;}
	.st20{display:inline;fill:#F0AD4E;}
	.st21{font-size:237.6998px;}
	.st22{display:inline;fill:#0275D8;}
	.st23{font-size:290.9563px;}
	.st24{fill:#A8E83A;}
	.st25{fill:#77DD00;}
	.st26{fill:#74BC04;}
	.st27{fill:#73CC00;}
	.st28{fill:#6CB504;}
</style>
<g class="st0">
	<path class="st1" d="M1007.4,630.1l-500.1,406.5c-3.2,2.6-7.8,2.1-10.4-1.1l-469-577c-9.5-11.6-7.7-28.8,3.9-38.2L495.6,43.5
		c11.6-9.5,28.8-7.7,38.2,3.9L1007.4,630.1z"/>
	<path class="st2" d="M448.1,95.6l485.1,594.9l74.2-60.3L533.8,47.4c-9.5-11.6-26.6-13.4-38.2-3.9l-55.7,45.3
		C443,90.4,445.8,92.7,448.1,95.6z"/>
	<path class="st3" d="M1100.5,784l-592.1,254.3c-3.8,1.6-8.1-0.1-9.7-3.9L205.3,351.3c-5.9-13.8,0.5-29.8,14.2-35.7l549-235.8
		c13.8-5.9,29.8,0.5,35.7,14.2L1100.5,784z"/>
	<path class="st4" d="M713.1,128.1L1014.4,821l86.1-37l-296.3-690c-5.9-13.8-21.9-20.2-35.7-14.2l-75.3,32.3
		C701.7,113.8,709.4,119.5,713.1,128.1z"/>
	<path class="st5" d="M1124.2,990.2L509,1040.7c-4.1,0.3-7.6-2.7-8-6.8l-60.8-741c-1.2-15,9.9-28.1,24.9-29.3l391.1-32.1L1106.6,444
		l42.4,516.9C1150.3,975.8,1139.1,988.9,1124.2,990.2z"/>
	<path class="st6" d="M912.2,279.1l17.1,208c0.7,8.7,8.4,15.2,17.1,14.5l67-5.5l36.1,439.4c1.2,15-9.9,28.1-24.9,29.3L498.9,1008
		l2.1,26c0.3,4.1,3.9,7.1,8,6.8l615.2-50.5c15-1.2,26.1-14.4,24.9-29.3l-42.4-516.9L912.2,279.1z"/>
	<path class="st7" d="M856.1,231.5L1106.6,444l-215.7,17.7c-8.7,0.7-16.4-5.8-17.1-14.5L856.1,231.5z"/>
</g>
<g class="st0">
	<polygon class="st8" points="578,266.1 634.2,540.7 1047.4,37.4 	"/>
	<polygon class="st9" points="752.8,421.8 634.2,540.7 654.4,367.8 730.1,369.9 	"/>
	<g class="st10">
		<polygon class="st11" points="1047.4,37.4 591.6,332.4 467.6,262.6 		"/>
		<polygon class="st11" points="1047.4,37.4 1046.8,39.1 807.6,451.9 654.4,367.8 		"/>
	</g>
	<polygon class="st12" points="807.6,451.9 1046.8,39.1 883.8,493.7 	"/>
</g>
<text transform="matrix(1 0 0 1 527.2765 841.8984)" class="st0 st13 st14">356</text>
<path class="st0" d="M1361.3,857.6c-88.1,0.1-174-13-258.5-39.3c-9.5-3-18.7,7-16,17c8.2,30.8,17.9,61.2,28.6,91.1
	c-131.8,51.3-266.1,95-402.7,129.5c-121.5,30.7-262.2,72.9-386.1,33.2c-148.5-47.7-184.8-217-140.5-359
	c42.2-135.3,134.5-277.9,262.3-331.9c6.6-2.8,4.2-13-3-11.5C316,414.6,222.8,566,174.9,686.1c-49.9,125.1-51.7,288.7,56.1,381.5
	c101,87,245.1,69.1,363.8,44.5c180.5-37.4,357.8-92.2,530.3-159.5c8.3,21.6,17.3,42.9,26.8,63.9c6,17.5,12.4,34.9,19.3,52.1
	c3.7,9.3,15,7.7,20.9,2.8c66.9-55.7,126.3-118.7,178.6-189.8C1377.4,872.5,1373.8,857.6,1361.3,857.6z M1255,879.3
	c1.8,7.8,3.2,15.5,4.3,23.2c-3.7-7.9-7.4-16-10.9-24.1C1250.7,878.7,1252.8,879,1255,879.3z M1223,905.9
	c-5.1-11.4-10.5-22.6-15.9-33.9c4.3,0.8,8.5,1.5,12.8,2.2c0,0.7-0.3,1.4-0.2,2.1C1220.7,886.2,1221.8,896.1,1223,905.9z
	 M1178.1,873.1c1.2,6.9,2.3,13.9,3.4,20.8c-3.1-8.9-6.2-17.9-9.4-26.8c-0.3-0.8-0.6-1.5-1-2.1c2.4,0.5,4.9,1,7.3,1.6
	C1178,868.5,1177.7,870.7,1178.1,873.1z M1147,874.4c2.9,12.6,5.3,25.2,7.4,37.7c-5.7-17.8-11.4-35.6-17.1-53.4
	c-0.3-0.9-0.8-1.5-1.2-2.3c5.1,1.3,10.2,2.6,15.3,3.9C1147.7,863.2,1145.6,868,1147,874.4z M1186.1,1032.8c2-2.2,3.2-5.3,3.3-9.2
	c0-9.9-0.3-19.7-0.7-29.5c2.1,6.1,4.3,12.2,6.4,18.3c2,5.8,7.1,8.9,12.3,9.4c-6.3,5.7-12.6,11.3-19,16.9
	C1187.5,1036.7,1186.8,1034.8,1186.1,1032.8z M1216.6,958.1c5.5,13.3,10.8,26.6,15.9,40.2c-3.9,3.7-7.7,7.5-11.6,11.2
	c0-0.3,0.1-0.5,0.1-0.8C1219.8,991.7,1218.3,974.9,1216.6,958.1z M1255.1,954.2c2.5,4.6,4.9,9.2,7.5,13.8c-1.8,1.8-3.5,3.7-5.3,5.5
	C1256.5,967,1255.8,960.6,1255.1,954.2z"/>
<g>
	<path class="st15" d="M403.5,655.1c0,60.8-43.6,104.3-130.7,130.4c68.6,24.4,102.9,66.7,102.9,126.7c0,46.1-19.4,84.4-58.2,114.6
		c-38.8,30.3-88.1,45.4-148,45.4c-44.7,0-79-9.3-102.9-27.8c-23.9-18.6-35.9-44.8-35.9-78.7c0-12.2,3.1-21.3,9.3-27.3
		c6.2-6,18.7-12.1,37.5-18.3c18.8-6.2,30.9-9.3,36.3-9.3c3.4,0,6.3,1.6,8.6,4.9c2.3,3.3,3.5,7.1,3.5,11.5c0,3.7-2.5,11.2-7.5,22.7
		c-5,11.5-7.5,23-7.5,34.4c0,16.6,6.4,30.8,19.2,42.5c12.8,11.7,28.4,17.6,46.7,17.6c29.1,0,52.1-14.1,69-42.3
		c17-28.2,25.5-60.1,25.5-95.8c0-25.6-5.7-46.9-17.2-63.9c-11.5-17-26-25-43.6-24l-26,1.5c-8.5,0.7-12.8-4.3-12.8-15
		c0-12.5,1.8-20.5,5.3-24.2c3.5-3.7,9.2-5.5,17-5.5c20.3,0,36.4-1.5,48.5-4.6s23.3-10.5,33.7-22.4c10.4-11.9,18.7-26.8,24.9-44.9
		c6.2-18.1,9.3-36,9.3-53.6c0-22-6.7-40.1-20.1-54.1c-13.4-14.1-30.5-21.1-51.3-21.1c-19,0-35.5,5.8-49.4,17.3
		c-13.9,11.5-20.9,25-20.9,40.4c0,5.9,1.8,13,5.5,21.3c3.7,8.3,5.5,14.8,5.5,19.5c0,6.4-8.5,14.1-25.6,23.1
		c-17.1,9.1-29.3,13.6-36.6,13.6c-5.6,0-10.5-3.4-14.6-10.3c-4.2-6.8-6.2-15.1-6.2-24.9c0-31,16.3-60.9,48.9-89.5
		c32.6-28.7,73.5-43,122.9-43c40,0,72.6,10.5,97.6,31.5C391,594.4,403.5,621.6,403.5,655.1z"/>
	<path class="st15" d="M785.8,541.9c-7.1,29.8-16.1,51.9-26.9,66.3c-10.9,14.4-23.3,23.7-37.4,27.8c-14,4.2-32.7,6.2-55.9,6.2
		c-23.7,0-51.6-2-83.9-5.9l-30.8,113.2c21.7-5.6,42-8.4,60.8-8.4c43.7,0,80.1,14.2,109.3,42.5C750.4,812,765,847.4,765,889.8
		c0,51.3-19.3,94.4-57.9,129.3c-38.6,34.9-86.3,52.4-143.2,52.4c-43.7,0-78.3-10.5-103.6-31.5c-25.4-21-38.1-43.8-38.1-68.5
		c0-7.8,1.1-14.1,3.3-18.9c2.2-4.8,6.6-8.9,13.4-12.5c6.7-3.5,17.4-8.5,32-15c14.6-6.5,24.7-9.7,30-9.7c5.9,0,8.8,2.9,8.8,8.8
		c0,2.4-1.3,11-4,25.6c-2.7,14.6-4,23.3-4,26c0,19.5,5.9,35.7,17.8,48.5c11.8,12.8,26.9,19.2,45.2,19.2c26.1,0,48.5-15.1,67.2-45.2
		c18.7-30.2,28-67.1,28-110.8c0-30.8-8.4-54.9-25.1-72.3c-16.7-17.5-39.9-26.2-69.4-26.2c-13.4,0-23.8,0.9-31.1,2.7
		c-7.3,1.8-12.2,2.7-14.6,2.7c-4.4,0-6.6-2.3-6.6-7c0-1.7,1.5-7.9,4.4-18.7l57.1-205.5c3.9-14.4,9.9-21.6,17.9-21.6
		c1.7,0,5.9,0.7,12.5,2.2c23.4,5.4,49.2,8.1,77.3,8.1C714.7,552.2,749.2,548.8,785.8,541.9z"/>
	<path class="st15" d="M1070.8,751.8c25.6,0,48.2,11.8,67.6,35.3c19.4,23.6,29.1,51.3,29.1,83.3c0,52-20.8,98.5-62.3,139.5
		c-41.5,41-88.8,61.5-141.7,61.5c-40.5,0-73.4-15.5-98.5-46.5c-25.1-31-37.7-71.8-37.7-122.3c0-64.5,16.2-124.3,48.5-179.5
		c32.3-55.2,72.3-99.2,119.9-132c47.6-32.8,82.9-49.3,105.8-49.3c0.5,0,3.7,1.8,9.7,5.4c6,3.6,9,6.6,9,9.1c0,2.2-2.9,5.2-8.8,8.9
		c-40.3,22.4-75.1,58.1-104.6,107c-29.4,48.9-51.5,103.4-66.1,163.4c-14.6,60-22,105-22,135c0,22,4.8,39.7,14.5,53.2
		c9.6,13.5,22,20.3,37.2,20.3c26.9,0,49.2-21.3,67-63.9c17.8-42.6,26.7-82.1,26.7-118.5c0-16.4-4.3-30.6-12.8-42.7
		c-8.5-12.1-18.1-18.1-28.6-18.1c-6.4,0-12.6,1.2-18.9,3.5c-6.2,2.3-10,3.5-11.2,3.5c-1.7,0-3.5-1.1-5.3-3.3s-2.7-4.6-2.7-7.3
		c0-2.7,10.1-11,30.2-24.9C1035.1,758.7,1053.7,751.8,1070.8,751.8z"/>
</g>
<g>
	<path class="st16" d="M557.5,254c-30.2,29.5-56.1,51.7-77.7,66.4c-21.5,14.8-42.5,22.1-62.8,22.1c-16,0-28.6-5.5-37.9-16.5
		c-9.3-11-14-25.8-14-44.5c0-26.1,6.5-59.3,19.6-99.4c13.1-40.2,19.6-64.6,19.6-73.3c0-7.7-4-11.6-12-11.6c-2.4,0-5.3,0.9-8.7,2.5
		c-3.6,1.7-7.7,4.1-12.3,7.3c-4.6,3.4-9.6,7.5-14.9,12.3c-5.3,4.8-10.9,10.4-16.7,16.7c-6.3,6.3-12.6,13.2-18.9,20.7
		c-10.6,12.6-16.9,23.1-18.9,31.6L290,240.2L268,325.9l-91.9,16.6L211.3,193c2.7-10.9,5.8-26.9,9.4-47.9c3.6-21,5.4-33.6,5.4-37.7
		c0-8.2-2.8-12.3-8.3-12.3c-1.7,0-4.1,0.8-7.3,2.5c-3.6,1.7-7.7,4.2-12.3,7.6c-5.3,3.9-11,8.5-17.1,13.8c-6.5,5.8-13.6,12.5-21,20
		c-8,8-16.2,16.8-24.7,26.5c-11.6,13.1-18.9,28.3-21.8,45.7c-3.9,20.8-6.5,39.4-8,55.9c-1.7,16.5-2.7,34.8-2.9,55.2l-80.6,19.2
		c-1.9-27.8-2.9-51-2.9-69.7c0-44.3,4.6-82.8,13.8-115.6c9.2-32.8,24.2-71.1,45-114.9l87.8-17.1c-15.7,39.4-27.9,77.5-36.7,114.3
		C194.4,62.9,244.2,25,278.8,25c12.6,0,22.8,5.1,30.7,15.4c7.9,10.3,11.8,23.8,11.8,40.5c0,7.7-1.2,22-3.6,42.8
		c40.9-40.9,70.2-67.6,88-80C423.4,31.2,439.8,25,454.8,25c13.3,0,24.2,5.3,32.7,16c8.5,10.6,12.7,24.2,12.7,40.6
		c0,25.9-7.1,59.2-21.4,99.8c-14.2,40.7-21.4,67.5-21.4,80.6c0,13.5,5,20.3,14.9,20.3c6.3,0,15-4.2,26.3-12.5
		c11.2-8.3,30.9-27.5,58.9-57.5V254z"/>
	<path class="st16" d="M967.8,234.6c-30.7,29.7-102.5,79.6-169.9,110.7C775.3,409.3,750,454.5,721.9,481
		c-28.1,26.5-57.4,39.7-87.9,39.7c-15.5,0-27.9-4.7-37.2-14.2c-9.3-9.4-14-22-14-37.7c0-47.7,43.7-90.8,131-129.6l22.1-78
		c-45.7,51-85.9,76.6-120.5,76.6c-18.6,0-33.7-7.6-45.2-22.9c-11.5-15.2-17.2-35.6-17.2-61c0-36.5,8-75.7,23.9-117.6l34.7-92.2
		l105.3-18.4l-45.2,107.7c-20.7,52-31.1,91.2-31,117.6c0,21.8,7.4,32.7,22.1,32.7c15,0,32.1-12.1,51.3-36.3
		c19.2-24.2,35.4-53.9,48.4-89.3l41.4-113.9l99-18.5l-94.4,283.8c55.4-25.4,100.5-57.5,135.9-96.9L967.8,234.6z M703.4,375.2
		c-29.8,13.3-52.7,28.2-68.8,44.8c-16.1,16.6-24.1,32.8-24.1,48.8c0,16.2,6.9,24.3,20.7,24.3C658,493.1,682.1,453.8,703.4,375.2z"/>
</g>
<g>
	<path class="st16" d="M250.8,1181.5c-11.7,11.5-21.8,20.1-30.1,25.8c-8.4,5.7-16.5,8.6-24.4,8.6c-6.2,0-11.1-2.1-14.7-6.4
		c-3.6-4.3-5.4-10-5.4-17.3c0-10.1,2.5-23,7.6-38.6c5.1-15.6,7.6-25.1,7.6-28.5c0-3-1.5-4.5-4.6-4.5c-0.9,0-2.1,0.3-3.4,1
		c-1.4,0.7-3,1.6-4.8,2.8c-1.8,1.3-3.7,2.9-5.8,4.8c-2.1,1.9-4.2,4-6.5,6.5c-2.4,2.4-4.9,5.1-7.3,8c-4.1,4.9-6.6,9-7.3,12.3
		l-4.7,20.2l-8.5,33.3l-35.7,6.5l13.7-58c1-4.2,2.3-10.4,3.7-18.6s2.1-13.1,2.1-14.7c0-3.2-1.1-4.8-3.2-4.8c-0.7,0-1.6,0.3-2.8,1
		c-1.4,0.7-3,1.6-4.8,3c-2.1,1.5-4.3,3.3-6.6,5.4c-2.5,2.3-5.3,4.8-8.2,7.7c-3.1,3.1-6.3,6.5-9.6,10.3c-4.5,5.1-7.3,11-8.5,17.8
		c-1.5,8.1-2.5,15.3-3.1,21.7c-0.7,6.4-1,13.5-1.1,21.4l-31.3,7.5c-0.8-10.8-1.1-19.8-1.1-27c0-17.2,1.8-32.1,5.4-44.9
		c3.6-12.7,9.4-27.6,17.5-44.6l34.1-6.6c-6.1,15.3-10.8,30.1-14.2,44.4c25.3-29.4,44.6-44.1,58-44.1c4.9,0,8.9,2,11.9,6
		c3.1,4,4.6,9.2,4.6,15.7c0,3-0.5,8.5-1.4,16.6c15.9-15.9,27.3-26.2,34.2-31.1c6.9-4.8,13.3-7.3,19.1-7.3c5.2,0,9.4,2.1,12.7,6.2
		s4.9,9.4,4.9,15.8c0,10.1-2.8,23-8.3,38.8s-8.3,26.2-8.3,31.3c0,5.3,1.9,7.9,5.8,7.9c2.4,0,5.8-1.6,10.2-4.9
		c4.4-3.2,12-10.7,22.9-22.3V1181.5z"/>
	<path class="st16" d="M356.2,1181.5c-11.9,11.7-22.6,20.4-32.1,26c-9.5,5.6-20,8.4-31.4,8.4c-12.8,0-23.1-4.1-30.9-12.3
		c-7.8-8.2-11.8-18.9-11.8-32.3c0-19.9,6.9-37.9,20.7-54c13.8-16.1,29.1-24.2,45.9-24.2c8.7,0,15.7,2.3,21,6.8
		c5.3,4.5,7.9,10.4,7.9,17.8c0,19.4-20.7,35.2-62,47.3c3.8,18.3,13.6,27.5,29.4,27.5c6.2,0,12.1-1.7,17.8-5
		c5.6-3.3,14.1-10.7,25.5-22.2V1181.5z M282.4,1155.4c24-6.8,36.1-19.3,36.1-37.5c0-9-3.3-13.5-9.9-13.5c-6.2,0-12.1,4.7-17.8,14.2
		C285.2,1128,282.4,1140.3,282.4,1155.4z"/>
	<path class="st16" d="M399.6,1098.9c6.5-1.7,13-3.1,19.6-4.2c6.6-1.1,10.5-1.6,11.8-1.6c0.9,0,1.4,0.4,1.4,1.1
		c0,1.4-0.4,2.9-1.1,4.4c-1.5,4.3-2.3,8.5-2.3,12.4c0,4.9,2.8,11.6,8.5,20c5.6,8.5,8.4,16.3,8.4,23.5c0,14.4-6.9,28.2-20.6,41.6
		c-13.8,13.3-28,20-42.8,20c-6.4,0-12.2-1.7-17.5-5.1c-5.3-3.4-7.9-7-7.9-10.8c0-2.3,2.6-6.5,7.8-12.8c5.2-6.3,8.9-9.4,11.2-9.4
		c3,0,5.7,3.9,8,11.6c2.3,7.7,6.4,11.6,12.1,11.6c5.7,0,11.1-2.7,16.1-8c5-5.3,7.5-11,7.5-17.1c0-5.9-3.2-13.8-9.6-23.7
		c-6.4-9.9-10.6-18.1-12.7-24.8c-10.9,17.6-24.7,35.5-41.4,54h-3.2v-12.7C376.1,1144.3,391.6,1121,399.6,1098.9z"/>
	<path class="st16" d="M516.7,1098.9c6.5-1.7,13-3.1,19.6-4.2c6.6-1.1,10.5-1.6,11.8-1.6c0.9,0,1.4,0.4,1.4,1.1
		c0,1.4-0.4,2.9-1.1,4.4c-1.5,4.3-2.3,8.5-2.3,12.4c0,4.9,2.8,11.6,8.5,20c5.6,8.5,8.4,16.3,8.4,23.5c0,14.4-6.9,28.2-20.6,41.6
		c-13.8,13.3-28,20-42.8,20c-6.4,0-12.2-1.7-17.5-5.1c-5.3-3.4-7.9-7-7.9-10.8c0-2.3,2.6-6.5,7.8-12.8c5.2-6.3,8.9-9.4,11.2-9.4
		c3,0,5.7,3.9,8,11.6c2.3,7.7,6.4,11.6,12.1,11.6c5.7,0,11.1-2.7,16.1-8c5-5.3,7.5-11,7.5-17.1c0-5.9-3.2-13.8-9.6-23.7
		c-6.4-9.9-10.6-18.1-12.7-24.8c-10.9,17.6-24.7,35.5-41.4,54h-3.2v-12.7C493.2,1144.3,508.7,1121,516.7,1098.9z"/>
	<path class="st16" d="M740.8,1181.5c-15,14.3-25.8,23.6-32.3,27.9c-6.5,4.3-12.7,6.5-18.6,6.5c-14.8,0-21.8-13.1-21-39.3
		c-9.4,13.4-18.1,23.3-26,29.7c-7.9,6.4-16.1,9.6-24.6,9.6c-8.3,0-15.3-3.9-21.1-11.6c-5.8-7.7-8.7-17.3-8.7-28.5
		c0-14.1,3.9-27.5,11.6-40.3c7.7-12.8,17.7-23.1,29.8-31s22.8-11.8,32.1-11.8c11.7,0,20,5.4,24.7,16.2l28.8-15.9h7.9l-12.4,41.3
		c-6.4,20.8-9.6,35-9.6,42.7c0,8.1,2.9,12.1,8.6,12.1c3.7,0,7.7-1.9,12.1-5.8c4.4-3.9,10.6-9.8,18.6-17.8V1181.5z M637.7,1189.2
		c9.4,0,18.2-8,26.6-24c8.3-16,12.5-30.8,12.5-44.3c0-5.3-1.2-9.4-3.5-12.3c-2.3-3-5.5-4.4-9.4-4.4c-9.4,0-18.3,8-26.7,23.9
		c-8.4,16-12.6,30.7-12.6,44.1c0,5.1,1.2,9.2,3.7,12.3C630.6,1187.7,633.8,1189.2,637.7,1189.2z"/>
	<path class="st16" d="M879,1181.5c-11.9,12.5-26.2,21.7-42.8,27.6c-7.8,24.3-17.7,43.1-29.7,56.2c-12,13.1-24.7,19.7-38.1,19.7
		c-7.3,0-13.2-2.3-17.8-6.9c-4.5-4.6-6.8-10.7-6.8-18.2c0-10.1,4.5-19.1,13.5-27c9-8,24.2-15.7,45.7-23.1l6.1-27.8
		c-9,10.1-16.8,17.6-23.4,22.3c-6.6,4.7-13.2,7.1-19.9,7.1c-7.8,0-14.2-3.7-19.2-11c-5-7.3-7.5-16.9-7.5-28.6
		c0-19.2,7.3-37.1,21.9-53.9c14.6-16.8,30.1-25.1,46.5-25.1c9.1,0,17.2,3.9,24.2,11.6c4.2-1.5,9.7-3.8,16.5-6.8l10-4.5h3.2
		c-3.7,11.1-6.5,21.9-8.4,32.4l-13.2,70.6c12.7-4.8,25.7-15.1,39-30.9V1181.5z M800.1,1222.2c-30.3,10.9-45.5,23.5-45.5,37.8
		c0,4.2,1.3,7.7,3.8,10.4c2.5,2.7,5.8,4,9.7,4c6.8,0,12.6-4.3,17.6-12.8C790.7,1253,795.5,1239.9,800.1,1222.2z M788.3,1186.1
		c6.7,0,12.6-3.9,17.8-11.8c5.2-7.9,9.2-17.9,12-30c2.9-12.1,4.3-20.5,4.3-25.2c0-4.4-1.1-8.1-3.3-10.9c-2.2-2.9-5-4.3-8.2-4.3
		c-10,0-18.6,6.7-26.1,20.1c-7.4,13.4-11.1,27.1-11.1,41c0,6.5,1.3,11.6,4,15.4S783.8,1186.1,788.3,1186.1z"/>
	<path class="st16" d="M984.2,1181.5c-11.9,11.7-22.6,20.4-32.1,26c-9.5,5.6-20,8.4-31.4,8.4c-12.8,0-23.1-4.1-30.9-12.3
		c-7.8-8.2-11.8-18.9-11.8-32.3c0-19.9,6.9-37.9,20.7-54c13.8-16.1,29.1-24.2,45.9-24.2c8.7,0,15.7,2.3,21,6.8
		c5.3,4.5,7.9,10.4,7.9,17.8c0,19.4-20.7,35.2-62,47.3c3.8,18.3,13.6,27.5,29.4,27.5c6.2,0,12.1-1.7,17.8-5
		c5.6-3.3,14.1-10.7,25.5-22.2V1181.5z M910.4,1155.4c24-6.8,36.1-19.3,36.1-37.5c0-9-3.3-13.5-9.9-13.5c-6.2,0-12.1,4.7-17.8,14.2
		C913.2,1128,910.4,1140.3,910.4,1155.4z"/>
	<path class="st16" d="M1027.6,1098.9c6.5-1.7,13-3.1,19.6-4.2c6.6-1.1,10.5-1.6,11.8-1.6c0.9,0,1.4,0.4,1.4,1.1
		c0,1.4-0.4,2.9-1.1,4.4c-1.5,4.3-2.3,8.5-2.3,12.4c0,4.9,2.8,11.6,8.5,20c5.6,8.5,8.4,16.3,8.4,23.5c0,14.4-6.9,28.2-20.6,41.6
		c-13.8,13.3-28,20-42.8,20c-6.4,0-12.2-1.7-17.5-5.1c-5.3-3.4-7.9-7-7.9-10.8c0-2.3,2.6-6.5,7.8-12.8c5.2-6.3,8.9-9.4,11.2-9.4
		c3,0,5.7,3.9,8,11.6c2.3,7.7,6.4,11.6,12.1,11.6s11.1-2.7,16.1-8c5-5.3,7.5-11,7.5-17.1c0-5.9-3.2-13.8-9.6-23.7
		c-6.4-9.9-10.6-18.1-12.7-24.8c-10.9,17.6-24.7,35.5-41.4,54h-3.2v-12.7C1004.1,1144.3,1019.6,1121,1027.6,1098.9z"/>
</g>
<g class="st0">
	<text transform="matrix(1 0 0 1 574.2256 1458.9839)" class="st17 st18 st19">messages</text>
	<text transform="matrix(1 0 0 1 571.394 1325.6274)" class="st20 st18 st21">My</text>
	<text transform="matrix(1 0 0 1 876.1641 1353.2476)" class="st22 st18 st23">356</text>
</g>
<g>
	<path class="st24" d="M1785.4,226.3l193.7,197c3.2,3.2,1.1,8.7-3.4,9l-426.2,29.9L1785.4,226.3z"/>
	<path class="st25" d="M1379.3,632.5l-291.2,642.9c-2,4.5,3.7,8.4,7.1,4.9l661.5-661.5l28.7-392.6L1379.3,632.5z"/>
	<path class="st26" d="M1676.4,335.4l-18.2,249.2l-570,690.8c-2,4.5,3.7,8.4,7.1,4.9l661.5-661.5l28.7-392.6L1676.4,335.4z"/>
	<path class="st24" d="M946.9,211.6l363.8,11.8l420.7,420.7l-178.7,178.7L945.2,215.5C943.8,214,944.9,211.6,946.9,211.6z"/>
	<polygon class="st27" points="1310.7,223.4 1418.2,957.4 1731.4,644.2 	"/>
	<path class="st28" d="M1310.7,223.4l24.4,166.6l209.7,209.7c41.8,41.8,41.8,109.6,0,151.5L1408,887.9l10.2,69.5l313.2-313.2
		L1310.7,223.4z"/>
</g>
</svg>
